<?xml version="1.0" encoding="iso-8859-1"?>
<!-- Generator: Adobe Illustrator 24.1.0, SVG Export Plug-In . SVG Version: 6.00 Build 0)  -->
<svg version="1.1" xmlns="http://www.w3.org/2000/svg" xmlns:xlink="http://www.w3.org/1999/xlink" x="0px" y="0px"
	 viewBox="0 0 512 512" style="enable-background:new 0 0 512 512;" xml:space="preserve">
<g id="_x38_0_x2C__Email_x2C__paper_plane_x2C__send_x2C__message_x2C__email">
	<g>
		<g>
			<path d="M361.053,511c-3.382,0-6.682-1.33-9.135-3.784L238.335,393.631L99.269,428.398C94.862,429.499,90.21,428.209,87,425
				c-3.208-3.21-4.498-7.866-3.398-12.269l34.767-139.065L4.784,160.081c-3.24-3.24-4.522-7.956-3.367-12.391
				c1.155-4.435,4.574-7.926,8.984-9.175L494.562,1.489c4.503-1.275,9.345-0.014,12.654,3.296c3.309,3.309,4.57,8.149,3.295,12.653
				L373.484,501.6c-1.248,4.409-4.74,7.828-9.175,8.983C363.232,510.864,362.138,511,361.053,511z M242.297,366.405
				c3.385,0,6.683,1.331,9.136,3.784l103.186,103.187l124.735-440.73L38.624,157.38l103.187,103.187
				c3.208,3.21,4.498,7.866,3.398,12.269l-31.318,125.272l125.273-31.317C240.202,366.532,241.254,366.405,242.297,366.405z"/>
			<path d="M242.286,392.245c-2.559,0-5.142-0.758-7.398-2.337c-5.845-4.091-7.266-12.147-3.175-17.992L445.515,66.485
				L140.085,280.287c-5.847,4.093-13.902,2.67-17.993-3.176c-4.091-5.845-2.67-13.901,3.175-17.992L490.673,3.336
				c5.135-3.594,12.108-2.985,16.544,1.448c4.432,4.433,5.043,11.408,1.448,16.544L252.881,386.733
				C250.368,390.323,246.359,392.245,242.286,392.245z"/>
		</g>
	</g>
</g>
<g id="Layer_1">
</g>
</svg>
